<svg id="Calque_1" data-name="Calque 1" xmlns="http://www.w3.org/2000/svg" viewBox="0 0 422.5 67"><defs><style>.cls-1{fill:#009ee2;}.cls-2{fill:#004995;}.cls-3{fill:#000091;}.cls-4{fill:#e1000f;}.cls-5{fill:#9d9d9c;}</style></defs><title>logo-web-etat-devise</title><path class="cls-1" d="M206.7634,24.55c-1.4095-1.1886-1.8794-3.0684-1.8794-5.915V5.615h2.5706v13.02a5.9141,5.9141,0,0,0,.6909,3.5656c.7741,1.1322,2.1284,1.4646,4.2287,1.4646H220.64c2.1007,0,3.4555-.3324,4.2288-1.4646a5.9147,5.9147,0,0,0,.6916-3.5656V5.615h2.5711V18.4959c0,2.9582-.5259,4.8927-1.8525,6.0539-1.41,1.2441-3.5383,1.4094-6.6895,1.4094h-6.1368c-3.0957,0-5.2245-.1653-6.6891-1.4094"/><polygon class="cls-1" points="232.496 25.711 232.496 5.615 236.421 5.615 254.582 23.416 254.582 5.615 257.07 5.615 257.07 25.711 253.421 25.711 234.984 7.633 234.984 25.711 232.496 25.711 232.496 25.711"/><polygon class="cls-1" points="261.629 5.614 264.118 5.614 264.118 25.71 261.629 25.71 261.629 5.614 261.629 5.614"/><polygon class="cls-1" points="266.328 5.615 269.148 5.615 279.043 23.582 288.995 5.615 291.841 5.615 280.674 25.711 277.495 25.711 266.328 5.615 266.328 5.615"/><polygon class="cls-1" points="293.885 5.615 313.677 5.615 313.677 7.854 296.318 7.854 296.318 14.156 312.959 14.156 312.959 16.395 296.318 16.395 296.318 23.471 313.677 23.471 313.677 25.711 293.885 25.711 293.885 5.615 293.885 5.615"/><path class="cls-1" d="M316.9364,25.711V5.6141h14.3472c5.6668,0,7.9055.6913,7.9055,4.7828v2.4049c0,2.3771-.7737,3.4269-3.5379,4.0075,2.1832.2486,3.3166,1.5764,3.3166,3.9249V25.711H336.48V21.2323c0-3.1512-1.4095-3.3994-4.8649-3.3994h-12.19V25.711ZM319.425,7.7985v7.7124h12.6605c3.5657,0,4.477-.6362,4.477-3.373v-.9668c0-2.7369-.9113-3.3726-4.477-3.3726Z"/><path class="cls-1" d="M345.1858,19.1594c-.0274.5251-.0556.9122-.0556,1.1878,0,2.7368,1.741,3.3733,5.8881,3.3733h5.2524c4.8922,0,6.5785-.5259,6.5785-3.898,0-2.8475-1.2719-3.317-4.4231-3.317H349.94c-5.2238,0-7.27-1.3813-7.27-5.5284,0-4.4786,2.5715-5.6112,8.6519-5.6112h4.5619c3.7037,0,6.1355.0825,7.5735,1.271.9668.83,1.3548,2.1289,1.3548,3.9813v.5806h-2.4053v-.305c0-2.9013-1.2437-3.3721-4.9756-3.3721h-6.8553c-3.9527,0-5.3066.6361-5.3066,3.3448,0,2.9577,1.6021,3.4,5.4728,3.4h7.2146c2.5151,0,4.312.11,5.4733.8023,1.52.9117,1.9071,2.4045,1.9071,4.8922,0,4.6166-2.2387,5.9987-8.2929,5.9987h-6.828c-5.252,0-7.49-1.41-7.49-5.28,0-.4426.0273-.94.0547-1.52Z"/><polygon class="cls-1" points="369.177 5.614 371.666 5.614 371.666 25.71 369.177 25.71 369.177 5.614 369.177 5.614"/><polygon class="cls-1" points="384.518 25.711 384.518 7.854 374.567 7.854 374.567 5.615 396.957 5.615 396.957 7.854 387.006 7.854 387.006 25.711 384.518 25.711 384.518 25.711"/><path class="cls-1" d="M399.72,5.6145h19.7926v2.24h-17.36v6.3021h16.641v2.2382h-16.641v7.0763h17.36v2.24H399.72V5.6145ZM410.6115.4455h3.3439l-4.6432,3.6771H407.46L410.6115.4455Z"/><polygon class="cls-2" points="214.504 47.286 214.504 40.432 208.656 40.432 208.656 47.286 204.884 47.286 204.884 30.544 208.656 30.544 208.656 37.04 214.504 37.04 214.504 30.544 218.254 30.544 218.254 47.286 214.504 47.286 214.504 47.286"/><path class="cls-2" d="M234.9663,44.0259h-6.0712l-.9371,3.26h-3.9738l5.7816-16.7418h4.4865l5.8482,16.7418h-4.1968l-.9374-3.26Zm-3.482-8.8831L229.81,40.8792h4.2635l-1.6067-5.7364-.4471-1.7634h-.0667l-.4688,1.7634Z"/><path class="cls-2" d="M259.313,41.3031c0,4.2184-2.2768,6.2946-6.7185,6.2946-4.4194,0-6.7629-2.0762-6.7629-6.2946V30.5439h3.75v10.714c0,2.0319.9151,2.9246,3.0133,2.9246s2.9913-.8707,2.9913-2.9246V30.5439h3.7272V41.3031Z"/><polygon class="cls-2" points="273.325 33.937 273.325 47.285 269.531 47.285 269.531 33.937 265.044 33.937 265.133 30.544 277.744 30.544 277.834 33.937 273.325 33.937 273.325 33.937"/><polygon class="cls-2" points="295.038 44.004 294.949 47.285 283.564 47.285 283.564 30.544 294.613 30.544 294.68 33.87 287.336 33.87 287.336 37.196 293.52 37.196 293.52 40.187 287.336 40.187 287.336 44.004 295.038 44.004 295.038 44.004"/><polygon class="cls-2" points="307.152 40.901 300.768 40.901 300.768 38.402 307.152 38.402 307.152 40.901 307.152 40.901"/><path class="cls-2" d="M323.8647,44.0259h-6.0712l-.9379,3.26h-3.973l5.7816-16.7418h4.4865l5.8474,16.7418h-4.196l-.9374-3.26Zm-3.4819-8.8831-1.6743,5.7364h4.2635l-1.6067-5.7364-.4471-1.7634h-.0667l-.4687,1.7634Z"/><polygon class="cls-2" points="345.421 43.892 345.332 47.285 334.729 47.285 334.729 30.545 338.523 30.545 338.523 43.892 345.421 43.892 345.421 43.892"/><path class="cls-2" d="M356.33,47.5977a10.9581,10.9581,0,0,1-5.179-1.25l.4911-3.2366a9.7452,9.7452,0,0,0,4.6424,1.2279c1.8309,0,2.6349-.6693,2.6349-1.8305,0-2.6332-7.7012-1.5172-7.7012-7.12,0-2.8346,1.83-5.1338,6.0712-5.1338a12.9678,12.9678,0,0,1,4.6875.8711l-.4691,3.169a13.42,13.42,0,0,0-4.04-.714c-2.0754,0-2.6336.714-2.6336,1.6067,0,2.6109,7.7012,1.4061,7.7012,7.0754,0,3.3041-2.3,5.3352-6.2056,5.3352"/><path class="cls-2" d="M379.2478,44.0259h-6.0713l-.9378,3.26h-3.9731l5.7816-16.7418h4.4865l5.8475,16.7418h-4.196l-.9374-3.26Zm-3.482-8.8831-1.6743,5.7364h4.2636l-1.6067-5.7364-.4472-1.7634h-.0667l-.4687,1.7634Z"/><path class="cls-2" d="M401.3844,34.1826a9.4132,9.4132,0,0,0-3.2814-.5583c-3.0356,0-4.04,1.2288-4.04,5.201,0,4.1968,1.0485,5.4471,4.1065,5.4471a8.2423,8.2423,0,0,0,3.26-.6481l.3788,3.058a10.1607,10.1607,0,0,1-4.174.9154c-5.0663,0-7.5221-2.813-7.5221-8.7948,0-5.5806,2.41-8.5486,7.7679-8.5486a11.8538,11.8538,0,0,1,3.8839.6916l-.38,3.2367Z"/><polygon class="cls-2" points="419.012 44.004 418.923 47.285 407.539 47.285 407.539 30.544 418.588 30.544 418.655 33.87 411.311 33.87 411.311 37.196 417.494 37.196 417.494 40.187 411.311 40.187 411.311 44.004 419.012 44.004 419.012 44.004"/><path class="cls-1" d="M170.8282,5.4562a75.4588,75.4588,0,0,1-9.5557,15.3149C150.5631,34.3044,136.2,44.4726,127.8636,44.4229a7.1119,7.1119,0,0,1-2.5894-.4555,5.0039,5.0039,0,0,1-2.9985-3.6461c-1.139-4.365.8793-11.4019,5.2141-19.0972l-4.5987,1.673c-3.6385,7.2768-5.1482,13.8437-3.9774,18.3347a7.8448,7.8448,0,0,0,4.7649,5.569,10.6892,10.6892,0,0,0,3.9047.7049c9.7308.0581,24.7216-10.2564,36.4543-25.0819A74.1641,74.1641,0,0,0,175.0648,3.9146l-4.2366,1.5416Z"/><polygon class="cls-2" points="175.342 36.973 136.25 36.973 137.504 34.469 176.595 34.469 175.342 36.973 175.342 36.973"/><path class="cls-2" d="M141.9693,65.0133a75.4016,75.4016,0,0,1,9.5557-15.3149c10.7094-13.5333,25.072-23.7015,33.4088-23.6517a7.1009,7.1009,0,0,1,2.5893.4554,5.004,5.004,0,0,1,2.9988,3.6457c1.1388,4.3655-.8794,11.4023-5.2143,19.0973l4.5984-1.6726c3.6387-7.2773,5.1484-13.8437,3.9776-18.3352a7.8445,7.8445,0,0,0-4.765-5.5686,10.6907,10.6907,0,0,0-3.9046-.7053c-9.7306-.0576-24.7214,10.2565-36.454,25.0819a74.1521,74.1521,0,0,0-11.0277,18.5092l4.237-1.5412Z"/><path d="M3.0182,17.9351H5.6944c1.9258,0,3.1139.988,3.1139,2.6137a2.3813,2.3813,0,0,1-1.4007,2.2635l2.7512,3.8767H8.0329L5.7069,23.15h-.913v3.539H3.0182Zm1.7757,1.5132v2.1885H5.7944a1.098,1.098,0,1,0,0-2.1885Z"/><path d="M11.26,17.9351h5.1022v1.5132H13.0353v2.0259h2.8263v1.5132H13.0353v2.1884h3.3264V26.689H11.26Zm1.7258-.75,1.4131-1.6882h1.8258l-1.6257,1.6882Z"/><path d="M18.4254,17.9351h2.8888c1.9259,0,3.1014.988,3.1014,2.6137,0,1.6132-1.1755,2.6012-3.1014,2.6012h-1.113v3.539H18.4254Zm1.7758,1.5132v2.1885h1.188a1.099,1.099,0,1,0,0-2.1885Z"/><path d="M31.0437,17.9351h1.7757v5.3274a3.3337,3.3337,0,0,1-3.5516,3.6767,3.33,3.33,0,0,1-3.5389-3.6767V17.9351h1.7757v5.4774a1.7719,1.7719,0,1,0,3.5391,0Z"/><path d="M35.0206,17.9351h2.4886c1.8258,0,2.9264.9,2.9264,2.3761a2.047,2.047,0,0,1-.9254,1.7257,2.2274,2.2274,0,0,1,1.4381,2.076c0,1.6007-1.2381,2.5761-3.2515,2.5761H35.0206Zm1.7758,1.5132v1.9133h.75c.6753,0,1.0631-.3376,1.0631-.9629,0-.5878-.3878-.95-1.0631-.95Zm0,3.439v2.2885h1c.8254,0,1.3257-.4377,1.3257-1.163s-.5-1.1255-1.3257-1.1255Z"/><path d="M42.7619,17.9351h1.7758v7.1407h3.3264V26.689H42.7619Z"/><path d="M49.4276,17.9351h1.7757V26.689H49.4276Z"/><path d="M62.8336,27.3018a1.8156,1.8156,0,0,0,.6252-.1v1.5007a2.31,2.31,0,0,1-.9254.1626,4.13,4.13,0,0,1-2.7387-1.15l-1.038-.9255a4.64,4.64,0,0,1-1.2005.15,4.6271,4.6271,0,1,1,4.64-4.6271A4.6363,4.6363,0,0,1,60.47,25.9637l.5252.5A2.7153,2.7153,0,0,0,62.8336,27.3018Zm-2.4636-4.99a2.8235,2.8235,0,1,0-5.64,0,2.8235,2.8235,0,1,0,5.64,0Z"/><path d="M69.0617,17.9351h1.7757v5.3274a3.5476,3.5476,0,1,1-7.0906,0V17.9351h1.7758v5.4774a1.7719,1.7719,0,1,0,3.5391,0Z"/><path d="M73.0386,17.9351h5.1023v1.5132H74.8144v2.0259h2.8262v1.5132H74.8144v2.1884h3.3265V26.689H73.0386Z"/><path d="M3.0182,30.5579H8.12v1.5132H4.7939v2.0258H7.62V35.61H4.7939v3.7016H3.0182Z"/><path d="M9.6839,30.5579H12.36c1.9258,0,3.1138.9879,3.1138,2.6136a2.3812,2.3812,0,0,1-1.4006,2.2635l2.7512,3.8768H14.6986l-2.326-3.5392H11.46v3.5392H9.6839ZM11.46,32.0711V34.26H12.46a1.0979,1.0979,0,1,0,0-2.1884Z"/><path d="M20.5139,30.5579H22.84l3.3141,8.7539H24.2655l-.8378-2.276H19.926l-.8378,2.276H17.2Zm2.3634,4.9646-1.2-3.2889-1.2006,3.2889Z"/><path d="M27.5046,30.5579h2.2761l3.9142,6.2654V30.5579h1.7757v8.7539h-2.276l-3.9142-6.29v6.29H27.5046Z"/><path d="M44.1122,36.6982l1.4007,1.0754a4.35,4.35,0,0,1-3.0014,1.7383l-1.088,1.8133H39.8479l1.1-1.8384a4.6354,4.6354,0,1,1,4.5645-7.4033l-1.4007,1.088a2.737,2.737,0,0,0-2.2884-1.2005,2.9671,2.9671,0,0,0,0,5.9276A2.7369,2.7369,0,0,0,44.1122,36.6982Z"/><path d="M49.2025,30.5579h2.326l3.314,8.7539H52.9542l-.8379-2.276H48.6147l-.8379,2.276H45.8885Zm2.3635,4.9646-1.2005-3.2889-1.2006,3.2889Z"/><path d="M56.1932,30.5579h1.7759v8.7539H56.1932Z"/><path d="M60.9205,36.9107a2.5245,2.5245,0,0,0,1.9383,1.0755.9864.9864,0,0,0,1.1254-1.013c0-1.5632-4.0017-1.213-4.0017-4.1268a2.6173,2.6173,0,0,1,2.8013-2.5387,3.8672,3.8672,0,0,1,3.0639,1.4757l-1.3006,1.163a2.3132,2.3132,0,0,0-1.7509-1.088.93.93,0,0,0-1.0128.9129c0,1.5633,4.0017,1.2006,4.0017,4.1644a2.68,2.68,0,0,1-2.9013,2.6262,3.9485,3.9485,0,0,1-3.2515-1.4632Z"/><path d="M67.6487,30.5579h5.1022v1.5132H69.4244v2.0258h2.8264V35.61H69.4244v2.1884h3.3265v1.5132H67.6487Z"/><path d="M31.5031,63.4834c.2375,0,.4429.18.3338.6354l-1.104.2567c.1926-.5134.5135-.8921.77-.8921m.61,1.7779h-.2182a1.3257,1.3257,0,0,1-.8664.584c-.3017,0-.4557-.18-.4557-.584a2.4159,2.4159,0,0,1,.0513-.4878l1.7779-.5841c.3466-.8215-.0706-1.181-.5584-1.181-.8408,0-1.7971,1.4057-1.7971,2.638,0,.5519.2631.8536.6739.8536.4814,0,.982-.4685,1.3927-1.2387m-.353-2.58,1.2516-1.1681v-.1348h-.6739l-.77,1.3029Zm-3.838.8216h.59l-.9371,2.5609a.2974.2974,0,0,0,.2567.4364,2.1794,2.1794,0,0,0,1.6945-1.2452H29.36a2.334,2.334,0,0,1-1.0847.6547l.86-2.4068h.8793l.1092-.3659H29.27l.3274-.9242h-.34l-.61.9242-.7252.1027Zm-.7958-.122a.2633.2633,0,0,0-.2118-.3723,1.6529,1.6529,0,0,0-1.3671,1.11h.1669a1.307,1.307,0,0,1,.7124-.5455l-.982,2.5544a.2557.2557,0,0,0,.2118.3723,1.6185,1.6185,0,0,0,1.3029-1.11h-.1669a1.3072,1.3072,0,0,1-.7124.5456Zm.18-1.2837a.4236.4236,0,1,0-.4236-.4236.4231.4231,0,0,0,.4236.4236m-5.6545,3.928c-.1283.2889.0065.475.2889.475.1733,0,.25-.0449.3209-.2311l.68-1.8035a2.4432,2.4432,0,0,1,1.22-.7959c.1861,0,.1605.1541.0385.3851l-1.0462,2.009A.2949.2949,0,0,0,23.41,66.5a1.6529,1.6529,0,0,0,1.3671-1.11H24.61a1.3079,1.3079,0,0,1-.7124.5456l.8985-1.8164a1.4573,1.4573,0,0,0,.1733-.6226.4421.4421,0,0,0-.4749-.4878c-.4429,0-.8922.5007-1.4249,1.1168V63.65c0-.34-.1091-.6419-.4172-.6419-.1925,0-.3787.1669-.552.4044v.0642c.3338-.0193.4814.4814.2439,1.0077Zm-.0127-2.2335c.1219-.4172.0578-.7831-.2632-.7831-.3786,0-.4749.2889-.86,1.1168V63.65c0-.34-.1091-.6419-.4172-.6419-.3594,0-.6868.5584-.9371,1.11h.1669c.1733-.25.3338-.3979.4621-.3979.1541,0,.2375.2375,0,.7638l-.6932,1.54c-.1283.2889.0065.475.2889.475.1733,0,.25-.0449.3209-.2311l.68-1.8035c.1926-.2375.3659-.4429.5841-.6739Zm-3.9409-.3081c.2375,0,.4429.18.3338.6354l-1.1039.2567c.1925-.5134.5134-.8921.77-.8921m.61,1.7779h-.2182a1.3258,1.3258,0,0,1-.8665.584c-.3017,0-.4557-.18-.4557-.584a2.4231,2.4231,0,0,1,.0513-.4878l1.7779-.5841c.3466-.8215-.0706-1.181-.5584-1.181-.8408,0-1.7971,1.4057-1.7971,2.638,0,.5519.2631.8536.6739.8536.4814,0,.982-.4685,1.3928-1.2387m-4.1912-1.7586h.5905L13.77,66.0636a.2974.2974,0,0,0,.2568.4364,2.1791,2.1791,0,0,0,1.6944-1.2452h-.1669a2.333,2.333,0,0,1-1.0847.6547l.86-2.4068h.8793l.1091-.3659h-.8536l.3273-.9242h-.34l-.61.9242-.7253.1027Zm-3.2411,1.996c0-.7894.8793-1.8613,1.3735-1.8613a1.11,1.11,0,0,1,.3016.0385l-.5134,1.3671c-.2953.3595-.751.7959-.9628.7959-.1219,0-.1989-.1027-.1989-.34m2.7021-2.6379-.27-.0192-.3017.2952h-.0641a3.094,3.094,0,0,0-2.7278,2.8369A.4857.4857,0,0,0,10.74,66.5c.3787,0,.7509-.5391,1.1681-1.1168l-.0192.2054c-.0514.5905.1283.9114.4364.9114.3594,0,.6868-.5584.9371-1.11h-.1669c-.1733.25-.3337.398-.4621.398-.1348,0-.2311-.2439,0-.7638Zm-3.1192.9307c.1219-.4172.0577-.7831-.2632-.7831-.3787,0-.4749.2889-.86,1.1168V63.65c0-.34-.1092-.6419-.4172-.6419-.36,0-.6868.5584-.9371,1.11h.1669c.1733-.25.3337-.3979.4621-.3979.154,0,.2375.2375,0,.7638l-.6932,1.54c-.1284.2889.0064.475.2888.475.1733,0,.25-.0449.3209-.2311l.68-1.8035c.1925-.2375.3658-.4429.5841-.6739Zm-4.9164,2.58.0642-.1989c-.8536-.16-.9627-.16-.6226-1.0911l.3466-.9564h.9435c.4236,0,.43.1733.3658.6354H6.883l.5649-1.5468H7.204c-.2118.3659-.3787.6354-.8408.6354H5.4325l.4942-1.3542c.1541-.43.2439-.52.8216-.52H7.159c.5969,0,.6675.16.6675.7638H8.064l.199-1.0526H4.72l-.0642.1989c.6867.1412.7509.2054.43,1.0911l-.77,2.1053c-.3209.8793-.4557.95-1.2451,1.0911l-.0578.1989Z"/><path d="M22.9092,55.4605c.2375,0,.4429.18.3338.6354l-1.104.2568c.1926-.5135.5135-.8922.77-.8922m.61,1.7779h-.2182a1.3258,1.3258,0,0,1-.8665.584c-.3017,0-.4557-.18-.4557-.584a2.4159,2.4159,0,0,1,.0513-.4878l1.7779-.5841c.3466-.8215-.0706-1.1809-.5584-1.1809-.8408,0-1.7971,1.4056-1.7971,2.6379,0,.552.2631.8536.6739.8536.4814,0,.982-.4685,1.3928-1.2387m-.353-2.58L24.4175,53.49v-.1348h-.6739l-.77,1.3029Zm-3.8381.8216h.59l-.9371,2.5609a.2974.2974,0,0,0,.2567.4364,2.1793,2.1793,0,0,0,1.6945-1.2451h-.1669a2.3347,2.3347,0,0,1-1.0847.6546l.86-2.4068H21.42l.1091-.3659h-.8537l.3274-.9242h-.34l-.61.9242-.7253.1027Zm-.7958-.122a.2632.2632,0,0,0-.2118-.3722,1.6528,1.6528,0,0,0-1.3671,1.11H17.12a1.3077,1.3077,0,0,1,.7124-.5455l-.982,2.5545a.2558.2558,0,0,0,.2118.3722,1.6185,1.6185,0,0,0,1.3029-1.11h-.1668a1.3077,1.3077,0,0,1-.7125.5456Zm.18-1.2836a.4237.4237,0,1,0-.4236-.4237.4232.4232,0,0,0,.4236.4237m-3.4145,3.8381,1.7907-4.6918L17.03,53.15l-1.1232.1284v.1348l.2182.1668c.199.1541.1348.3017-.0449.7767l-1.3992,3.6841a.2949.2949,0,0,0,.2568.4364,1.5762,1.5762,0,0,0,1.3029-1.11h-.1669a1.4494,1.4494,0,0,1-.7766.5456m-3.4016-.4364c0-.79.8793-1.8614,1.3735-1.8614a1.1065,1.1065,0,0,1,.3016.0386L13.0574,57.02c-.2953.3594-.751.7958-.9628.7958-.1219,0-.1989-.1027-.1989-.34m2.7021-2.638-.27-.0192-.3017.2952h-.0641a3.094,3.094,0,0,0-2.7278,2.8369.4857.4857,0,0,0,.5263.5263c.3787,0,.7509-.5391,1.1681-1.1168l-.0192.2054c-.0514.59.1283.9114.4364.9114.3594,0,.6868-.5584.9371-1.11h-.1669c-.1733.25-.3338.398-.4621.398-.1348,0-.2311-.2439,0-.7638ZM8.064,59.1c0-.34.3273-.552.7959-.7381a5.84,5.84,0,0,0,.6932.2631c.4877.1605.6739.2247.6739.3723,0,.3145-.5327.552-1.258.552-.61,0-.905-.1284-.905-.4493m1.3286-2.0731c-.2118,0-.2952-.18-.2952-.3851,0-.5713.308-1.412.7894-1.412.2118,0,.2953.18.2953.385,0,.5713-.3081,1.4121-.79,1.4121m1.3928,1.7586c0-.4108-.3659-.5584-.9628-.7381-.5134-.1541-.7445-.199-.7445-.3659a.5246.5246,0,0,1,.3273-.4107,1.4968,1.4968,0,0,0,1.3864-1.4377.866.866,0,0,0-.0706-.353h.7124l.1091-.3659h-1.13a.8727.8727,0,0,0-.4557-.1283,1.4884,1.4884,0,0,0-1.47,1.4184.8264.8264,0,0,0,.68.8536c-.4172.1862-.6483.4044-.6483.6611a.4039.4039,0,0,0,.1733.3466c-.9627.2824-1.3414.6033-1.3414,1.059,0,.4429.584.629,1.2772.629,1.1746,0,2.1566-.6354,2.1566-1.1681M6.299,56.0382c.4236,0,.43.1733.3658.6354h.2439l.5648-1.5468H7.23c-.2118.3658-.3786.6354-.8408.6354H5.4582l.4685-1.29c.1541-.43.2439-.5135.8216-.5135H7.159c.5969,0,.6675.1605.6675.7574H8.064l.199-1.0526H4.72l-.0642.199c.6867.1412.7509.2053.43,1.0911l-.77,2.1052c-.3209.8793-.4557.95-1.2451,1.0911l-.0578.1989H6.9536L7.66,57.232H7.39a2.5846,2.5846,0,0,1-1.8036.8279c-1.0461,0-.95-.0449-.6033-1.0012l.3723-1.02Zm.5134-2.6893,1.2516-.86V52.354H7.3067l-.6932.9949Z"/><path d="M22.492,47.4376c.2374,0,.4428.18.3337.6354l-1.1039.2568c.1925-.5135.5134-.8922.77-.8922m.61,1.7779h-.2182a1.3258,1.3258,0,0,1-.8665.5841c-.3016,0-.4557-.18-.4557-.5841a2.4159,2.4159,0,0,1,.0514-.4878l1.7778-.5841c.3466-.8215-.0706-1.1809-.5584-1.1809-.8408,0-1.7971,1.4056-1.7971,2.6379,0,.552.2632.8536.6739.8536.4814,0,.982-.4685,1.3928-1.2387m-.353-2.58L24,45.4672v-.1348h-.674l-.77,1.3029Zm-3.6776.8216H19.54l-.937,2.5609a.2974.2974,0,0,0,.2567.4364,2.1792,2.1792,0,0,0,1.6944-1.2451h-.1669a2.3337,2.3337,0,0,1-1.0847.6546l.86-2.4068h.8793l.1091-.3659H20.297l.3273-.9242h-.34l-.61.9242-.6033.1027Zm-.4621.2888c.122-.4172.0578-.783-.2631-.783-.3787,0-.475.2888-.86,1.1168v-.475c0-.34-.1091-.6418-.4171-.6418-.36,0-.6868.5584-.9371,1.11h.1669c.1733-.25.3337-.3979.4621-.3979.154,0,.2375.2375,0,.7638l-.6932,1.54c-.1284.2888.0064.4749.2888.4749a.2861.2861,0,0,0,.3209-.231l.68-1.8036c.1925-.2375.3658-.4428.584-.6739Zm-3.9408-.3081c.2375,0,.4429.18.3338.6354l-1.104.2568c.1926-.5135.5135-.8922.77-.8922m.61,1.7779H15.06a1.3259,1.3259,0,0,1-.8664.5841c-.3017,0-.4557-.18-.4557-.5841a2.4159,2.4159,0,0,1,.0513-.4878l1.7779-.5841c.3466-.8215-.0706-1.1809-.5584-1.1809-.8408,0-1.7971,1.4056-1.7971,2.6379,0,.552.2631.8536.6739.8536.4813,0,.982-.4685,1.3927-1.2387m-4.3579.7188c-.1733,0-.4236-.16-.4236-.3016a3.58,3.58,0,0,1,.1733-.4942l.2888-.7638c.3081-.3658.7766-.7574,1.04-.7574.16,0,.2824.1027.2824.34,0,.7-.6547,1.9768-1.3607,1.9768m2.0218-2.2592c0-.52-.1926-.7124-.552-.7124-.4493,0-.8729.4749-1.2965,1.0526l1.0718-2.8177-.0577-.0706-1.1232.1284V45.39l.2182.1669c.199.154.1348.3145-.0449.7766l-1.1553,2.9781a3.3737,3.3737,0,0,0-.1862.5455c0,.3081.4172.5969.7959.5969.8729,0,2.33-1.5725,2.33-2.7791m-3.4915-.34a.2633.2633,0,0,0-.2118-.3722,1.6528,1.6528,0,0,0-1.3671,1.11h.1669a1.3075,1.3075,0,0,1,.7124-.5455l-.982,2.5545a.2557.2557,0,0,0,.2118.3722,1.6186,1.6186,0,0,0,1.3029-1.11H9.1165a1.3075,1.3075,0,0,1-.7124.5455Zm.18-1.2836a.4236.4236,0,1,0-.4236-.4236.4232.4232,0,0,0,.4236.4236m-2.5865-.4108H4.7072l-.0641.199c.6867.1412.7509.2054.43,1.0911l-.7574,2.1052c-.3209.8793-.4557.95-1.2451,1.0911l-.0578.199H6.5685l.77-1.3736H7.0692A2.4641,2.4641,0,0,1,5.33,50.037c-.5969,0-.6675-.1027-.3466-1.0012l.7574-2.1052c.3145-.8793.4557-.95,1.2451-1.0911Z"/><path class="cls-3" d="M16.2026,10.753c.1247-.1247.2507-.2587.3759-.3931h-.0027a7.4589,7.4589,0,0,1,.7326-.7478,2.4467,2.4467,0,0,1,.2389-.191c.022-.0219.022-.0659.0439-.0878-.11.0439-.1757.1318-.2855.1757-.022,0-.0439-.022-.022-.0439l.2347-.1761-.015,0c-.022,0-.022-.022-.022-.044a.8948.8948,0,0,0-.7029.3295c-.0439.022-.0878-.022-.11-.022-.3295.11-.5711.3954-.9006.5272v-.0439a4.2245,4.2245,0,0,1-.3953.1537,2.3432,2.3432,0,0,1-.5492.022,7.36,7.36,0,0,0-.7987.1422l-.023.0058a1.8491,1.8491,0,0,0-.4093.1648l-.0149.0087c-.011.0137-.0217.0269-.0319.038a.5318.5318,0,0,1-.1506.1314,2.2159,2.2159,0,0,0-.3642.2855.0625.0625,0,0,1-.0353.0111c-.1178.113-.234.2276-.3537.3387a.1107.1107,0,0,1-.0671.008l.0019-.002.0126-.021q.0279-.0465.0564-.0926.0318-.0514.0651-.102c.03-.0455.0607-.09.0935-.1337a.0207.0207,0,0,0-.0008-.0289.0419.0419,0,0,0-.03-.0114,2.0778,2.0778,0,0,1,.3687-.2752v-.0038c-.0147.0051-.036-.0066-.0249-.0221.0139-.0194.0249-.04.0379-.06l.007-.02-.0166-.0174a.8415.8415,0,0,0-.1032.0722c-.0526.0474-.0937.1442-.1735.1433a.1351.1351,0,0,1-.0333-.0048.0624.0624,0,0,1-.023-.0078l.0028-.0051.0033-.006.0032-.0057.01-.0189.01-.0189.0084-.0153.0156-.0278.0115-.02.0283-.0485L12.92,10.57l.0234-.04a.0261.0261,0,0,0-.0165-.0393.5.5,0,0,1,.15-.131h-.0066c.0841-.0424.1681-.0938.2522-.1411l.0363-.0314a1.4848,1.4848,0,0,0-.3493.1725.1718.1718,0,0,0-.0372.02.0542.0542,0,0,1-.0547-.02.0259.0259,0,0,1-.0053-.0162c.022-.0439.0879-.0659.1318-.11.022,0,.0439,0,.0439.0219.7029-.5491,1.6694-.4173,2.4822-.7029l.1976-.1318c.11-.0439.1977-.1537.3295-.22a.9627.9627,0,0,0,.3734-.5052.0768.0768,0,0,0-.022-.044,3.38,3.38,0,0,1-.9664.7249,4.1269,4.1269,0,0,1-1.45.2636c.022-.0439.066-.0439.11-.0439,0-.0659.0439-.0879.0879-.1318h.0659c.0219,0,.0219-.044.0439-.044.0439,0,.11-.0219.0879-.0219-.066-.0879-.1977.0659-.3076,0,.044-.044.022-.11.0659-.1318h.0879a.1533.1533,0,0,1,.0439-.0879c.3295-.1977.637-.3514.9445-.5272-.0659,0-.11.066-.1757.022.0439,0,0-.0659.0439-.0659.2417-.0659.4394-.1977.681-.2855-.0879,0-.1538.0659-.2416,0,.0439-.022.0658-.0659.1317-.0659V8.1911c0-.022.022-.022.044-.022a.0768.0768,0,0,1-.044-.022c.022-.0439.0879-.0219.1318-.0658-.0219,0-.0659,0-.0659-.022a.4357.4357,0,0,1,.2856-.1318c-.022-.0439-.0879,0-.0879-.0439,0-.022.022-.022.0439-.022h-.0439c-.0439-.022-.022-.0659-.022-.0879a1.5346,1.5346,0,0,0,.1977-.5271c-.022,0-.0439,0-.0439-.022a1.802,1.802,0,0,1-.9006.4173h-.11a.4456.4456,0,0,1-.3734-.0219,1.5435,1.5435,0,0,1-.22-.1757,2.5234,2.5234,0,0,0-.5491-.2636,4.9284,4.9284,0,0,0-1.6913-.2416,3.6708,3.6708,0,0,1,.7688-.22,3.2794,3.2794,0,0,1,1.12-.22.7388.7388,0,0,0-.22,0,3.6257,3.6257,0,0,0-.9445.1318c-.22.044-.4173.1318-.637.1758-.1318.0439-.1977.1757-.3514.1537V6.8951a1.264,1.264,0,0,1,.8347-.5491,4.1434,4.1434,0,0,1,1.1641.0439,5.5674,5.5674,0,0,1,.8347.1538c.11,0,.1318.1757.22.1977.1317.0439.2636,0,.3953.0878,0-.0439-.0219-.0878,0-.1318.0879-.0878.1977.022.2856-.0219.1757-.11-.1537-.3075-.2416-.4613a.0765.0765,0,0,1,.0219-.0439,2.5535,2.5535,0,0,0,.5272.4393c.11.0439.3734.11.3295-.022a3.5174,3.5174,0,0,0-.5052-.659V5.8408c-.0439,0-.0439-.022-.0659-.0439V5.709c-.0879-.0439-.0659-.1318-.11-.1977-.0658-.11-.0219-.2636-.0658-.3954a2.3048,2.3048,0,0,1-.0879-.3734c-.0659-.3734-.1537-.7029-.1977-1.0543-.0439-.4174.2417-.7468.4393-1.12a1.881,1.881,0,0,1,.615-.7029,1.9274,1.9274,0,0,1,.4174-.7029,1.8305,1.8305,0,0,1,.678-.4393A5.8723,5.8723,0,0,1,18.0623.5H2.9877V12.1238H13.6631a9.67,9.67,0,0,1,1.42-.7317A5.6537,5.6537,0,0,0,16.2026,10.753ZM12.8248,9.18c-.044,0-.1318.022-.11-.0219.022-.11.1758-.11.2636-.1538.044-.022.11-.0659.1538-.0439.0439.0659.11.0439.1538.0878C13.1543,9.18,12.9785,9.1136,12.8248,9.18ZM9.4641,8.6963a.0768.0768,0,0,1-.022-.044,6.7815,6.7815,0,0,0,.7029-1.12,3.0313,3.0313,0,0,0,.7468-.615,4.2731,4.2731,0,0,1,1.23-.9665.8514.8514,0,0,1,.5711.022c-.066.0878-.1758.0659-.2636.1318a.0805.0805,0,0,1-.0659-.022.0809.0809,0,0,0,.0219-.0659c-.22.2416-.5271.3515-.7028.637-.1319.22-.22.5052-.5052.5711-.0879.022.0219-.0659-.022-.0439A7.4044,7.4044,0,0,0,9.4641,8.6963Zm1.8231-1.45c-.022.0439-.0463.0485-.0659.0878a.1714.1714,0,0,1-.0879.0879c-.0219,0-.0439,0-.0439-.022a.2684.2684,0,0,1,.1757-.1977C11.2872,7.2026,11.2872,7.2246,11.2872,7.2466Zm1.02,3.291a.1933.1933,0,0,1-.0541.064c.0274.0056.0467.0178.029.034a.48.48,0,0,1-.1665.1162.1853.1853,0,0,1-.0338.0046c-.0269.026-.0539.0519-.082.0768-.026.0231-.1468.0064-.11-.0264.0558-.0494.1074-.103.1624-.1532a1.0781,1.0781,0,0,0,.0913-.0875.2721.2721,0,0,1,.0472-.0487C12.2089,10.5048,12.3251,10.4945,12.3073,10.5376Zm-.3936-.1815-.0055.0038c-.0822.0579-.1641.1169-.2508.1673-.0939.0544-.1923.0959-.29.1422l-.0028-.0054a.029.029,0,0,0-.0371-.0088,1.0479,1.0479,0,0,0-.2211.1683l-.03.03-.0018.0017-.0017.0017-.0312.0311-.0037.0037-.0014.002c-.0156.0155-.0307.0312-.0478.0514a.1238.1238,0,0,1-.0293.0307c-.0136.0091-.0514.0088-.0479-.0165l0-.0043-.039.02c-.012.0058-.0231.0124-.0343.0188a.0365.0365,0,0,0-.0151-.0022.0271.0271,0,0,0-.0158.0054c-.0269.021-.0535.0434-.0794.0669a1.1263,1.1263,0,0,0-.1274.1355l-.002.002-.0043.006-.0066.0085-.007.0091-.0021.0027-.0149.0219-.0009.0013a.0321.0321,0,0,1-.018.0086l-.0088-.0131-.0061-.0106c-.0067-.0114-.0129-.0231-.0188-.0352L10.51,11.199l-.0052-.011c.0238-.0255.0468-.052.069-.079l.0044-.0054.0228-.0282.0368-.0469.0134-.0175c.0241-.0314.0472-.062.0687-.0928l.0016-.0023.01-.0138c.01-.0156.0206-.0313.03-.0472s.0166-.029.0241-.0439l.0017-.0032.0023-.0046.0036-.0081c.0077-.0166.0146-.0337.0209-.0512l.0019-.0058.0049-.0144.0069-.0242h0l.0013-.0053.0076-.0322a.0214.0214,0,0,0-.0026-.0148.7078.7078,0,0,1,.087-.1186l-.01.0058c-.0314.02-.0522.0485-.0815.07-.0239.0178-.068-.0118-.04-.033a.5668.5668,0,0,0,.05-.0452l.0024-.0036a1.1121,1.1121,0,0,1,.112-.1115c.0252-.0184.0471-.0338.0676-.0515l.01-.0088a.4861.4861,0,0,1,.0492-.0554l.0022-.0022c.21-.2029.5642-.1939.8414-.3232.11-.044.2416.0219.3514,0a.3267.3267,0,0,1,.1977.0439C12.276,10.1218,12.0936,10.2431,11.9137,10.3561Zm.45-1.528c-.022-.022.0659,0,.0878-.0439h-.1757c-.0219,0-.0219-.022-.0219-.044-.11.022-.2417.0659-.3515.0879-.1537.0439-.2855.1537-.4613.1977-.2416.0878-.4392.2855-.7028.3734-.022,0-.022-.022-.022-.044.022-.0658.11-.0878.1537-.1537,0-.022,0-.0439-.0219-.0439a3.9383,3.9383,0,0,1,.637-.5711v-.066c.0658-.0878.1757-.1317.22-.2416a.3962.3962,0,0,1,.22-.1976c-.022-.022-.0659-.022-.0659-.0659-.0879,0-.1757.0439-.2636-.022a.3124.3124,0,0,1,.1377-.0781.08.08,0,0,1-.05-.0317c-.022-.044.0424-.093.11-.11.0879-.0219.1977-.0219.2636-.0878-.1538-.022-.3295.0439-.4833-.044a1.1732,1.1732,0,0,1,.5492-.6589c.0219,0,.0659,0,.0659.0219a.2139.2139,0,0,1-.1758.22,2.3123,2.3123,0,0,1,.5272.1318c-.022.0439-.0659.022-.0879.022.11.0659.2417.0219.3515.11-.0659.0659-.1318,0-.1977,0a5.749,5.749,0,0,1,1.9769.7907,6.05,6.05,0,0,1-1.5156.4613.4849.4849,0,0,1-.1757-.0219c0,.0219,0,.0659-.022.0659a.3611.3611,0,0,0-.22.0439C12.5612,8.872,12.4294,8.894,12.3635,8.8281Z"/><path class="cls-4" d="M34.9532.5H22.4492a.5516.5516,0,0,1,.1188.0549c.1015.0545.2329.1248.3154.168a1.036,1.036,0,0,1,.4188.3514c.044.0659.11.1977.0659.2855-.0439.11-.0659.2856-.1757.33a.8151.8151,0,0,1-.4612.0439,1.1,1.1,0,0,1-.2636-.0439,1.7876,1.7876,0,0,1,.8566.5931c.022.0439.11.0659.1977.0659.022,0,.022.0439.022.0659-.044.0439-.0879.0659-.0659.1318h.0659c.11-.044.0878-.2636.2416-.1977a.2481.2481,0,0,1,.0879.3295,2.3417,2.3417,0,0,1-.2636.22.1875.1875,0,0,0,0,.1538.6764.6764,0,0,1,.11.2636c.0659.1537.0879.3295.1538.4832a3.0945,3.0945,0,0,1,.1537.9885c0,.1757-.0879.3294-.022.5052a1.85,1.85,0,0,0,.2417.4612,3.3618,3.3618,0,0,1,.2416.3515c.1318.22.3734.4393.2636.7029-.0659.1537-.3076.1318-.4613.22-.1318.11-.022.2856.0439.3954.11.1977-.1318.33-.2855.3954.0439.0659.1317.0439.1537.0878.022.11.1318.1758.0659.2856-.0879.1318-.3514.1977-.22.3954a.5819.5819,0,0,1-.022.4832.5383.5383,0,0,1-.3954.33.8968.8968,0,0,1-.4173.0219.3131.3131,0,0,0-.1318-.0439,9.8054,9.8054,0,0,0-1.12-.1538,1.2606,1.2606,0,0,0-.3074.0879,1.9458,1.9458,0,0,0-.266.2352l-.0026.0028c-.0164.0175-.0323.0353-.0479.0532l-.0283.0337-.0187.0227a2.095,2.095,0,0,0-.1729.2531l-.01.0168-.017.0307a2.12,2.12,0,0,0-.1663.4031,1.3215,1.3215,0,0,0,.0208,1.0393c.0291.0291.725.244,1.21.46a4.1035,4.1035,0,0,1,.5184.2623H34.9532Z"/><path class="cls-5" d="M23.193,4.7405c.0878.022.22.022.22.0659-.0439.1757-.3076.22-.4394.3954h-.0659c-.0658.0439-.0439.1538-.11.1538a.31.31,0,0,0-.1976.0219.3766.3766,0,0,0,.3294.1318.0981.0981,0,0,1,.0659.0879.068.068,0,0,0,.0439-.022c.0221,0,.0441,0,.0441.022v.0879c-.0661.0878-.1759.0438-.2637.0659a.9844.9844,0,0,0,.5052,0c.1318-.0439,0-.2637.0879-.3735-.0439,0,0-.0659-.0439-.0659.0439-.0439.0878-.11.1317-.1318a.1562.1562,0,0,0,.1318-.0659c0-.0439-.0877-.0658-.0659-.11.1318-.0877.2416-.22.1978-.3514-.022-.0659-.1978-.0659-.3076-.11a.7329.7329,0,0,0-.3733.022,1.8319,1.8319,0,0,0-.33.0878,1.5227,1.5227,0,0,0-.4174.22,3.1031,3.1031,0,0,1,.4833-.1318A1.4413,1.4413,0,0,1,23.193,4.7405Z"/></svg>